<svg width="60" height="60" viewBox="0 0 60 60" fill="none" xmlns="http://www.w3.org/2000/svg">
<rect width="60" height="60" rx="5" fill="#E9EFFD"/>
<mask id="path-2-inside-1_3657_1490" fill="white">
<path d="M39.968 37.9204C39.9191 37.8063 39.8197 37.7265 39.7032 37.6977C40.5225 36.5855 39.531 35.1215 38.1277 35.1522C38.1277 35.1522 35.8371 35.1522 35.8371 35.1522C35.6506 34.3111 35.0219 33.6162 34.186 33.3651L31.7665 32.6379L31.0749 31.5922C30.9591 31.4156 30.7234 31.3655 30.5449 31.4774V30.6703C31.2631 30.0633 31.7667 29.21 31.9333 28.2411C32.8868 28.3106 33.7208 27.5595 33.7168 26.5714C33.7168 26.188 33.5813 25.8392 33.363 25.5586V23.8189C33.0735 17.3956 22.8224 17.3918 22.529 23.8189C22.529 23.8189 22.529 25.5631 22.529 25.5631C21.6422 26.677 22.5386 28.361 23.9598 28.241C24.1267 29.2121 24.6319 30.0671 25.3525 30.6744L25.3411 31.4706C25.1638 31.3662 24.9364 31.4201 24.8229 31.5922L24.1311 32.6379L21.7122 33.3648C20.704 33.6677 20 34.6198 20 35.6797V40.5165C20 40.733 20.174 40.9082 20.3887 40.9082C25.0144 40.8523 35.0978 41.0119 39.6112 40.9993C39.9397 41.0084 40.13 40.5748 39.8939 40.3386C39.2487 39.649 39.2486 39.0339 39.894 38.3446C40.0002 38.2306 40.0295 38.0642 39.968 37.9204ZM39.2225 36.8096C39.2225 37.292 38.7313 37.684 38.1277 37.684H32.1635C32.2449 37.5243 32.3014 37.3631 32.3377 37.2013H35.5089C36.0169 37.1994 36.0175 36.4199 35.5089 36.4179H32.3376C32.3013 36.2563 32.2448 36.0952 32.1635 35.9356H38.1277C38.7313 35.9356 39.2225 36.3277 39.2225 36.8096ZM30.6307 32.3331L31.0714 32.9991L30.1752 34.7739L28.6481 33.4895L30.6307 32.3331ZM32.0777 27.4577H31.9969V25.7028C33.1778 25.6384 33.2742 27.4153 32.0777 27.4577ZM27.9479 19.7571C30.5051 19.7571 32.5856 21.5793 32.5856 23.8189V25.0088C32.402 24.9456 32.1986 24.9122 31.9969 24.9194C31.9969 24.9194 31.9969 23.3369 31.9969 23.3369C31.9969 23.1292 31.8359 22.9575 31.6298 22.946C30.6269 22.889 29.9194 22.7364 29.4673 22.479C29.33 22.4006 29.1594 22.4132 29.0353 22.5123C27.8806 23.4291 26.3641 23.5768 24.4001 22.9629C24.2818 22.9258 24.1535 22.9476 24.0543 23.0218C23.9548 23.0956 23.8962 23.2126 23.8962 23.3369V24.9194C23.6944 24.9121 23.4903 24.9457 23.3065 25.0092V23.8189C23.3065 21.5793 25.3885 19.7571 27.9479 19.7571ZM22.9534 26.5714C22.951 26.0593 23.3941 25.6642 23.8962 25.7028C23.8962 25.7028 23.8962 27.4577 23.8962 27.4577C23.3922 27.4957 22.9515 27.1019 22.9534 26.5714ZM24.6736 27.5438C24.681 26.6622 24.6682 24.7198 24.6736 23.8549C26.5387 24.3353 28.0966 24.1421 29.3152 23.2784C29.792 23.4961 30.4094 23.6334 31.2195 23.7022V27.5438C31.0553 31.912 24.8378 31.9126 24.6736 27.5438ZM26.1299 31.1865C27.2102 31.7659 28.688 31.7649 29.7675 31.1842V31.9309L27.9489 32.9919L26.1299 31.9308V31.1865ZM25.2674 32.3328L27.2499 33.4895L25.7233 34.7739L24.8263 32.9991L25.2674 32.3328ZM20.7774 35.6797C20.7774 34.9633 21.2532 34.3203 21.9342 34.1152L24.1773 33.4412L25.2519 35.5672C25.3565 35.7873 25.6647 35.8512 25.8475 35.69C25.8475 35.69 27.5803 34.232 27.5803 34.232L27.5577 40.1248H20.7774L20.7774 35.6797ZM28.3575 34.2656L30.0515 35.69C30.2338 35.8513 30.5424 35.7869 30.647 35.5668C30.647 35.5669 31.7204 33.4413 31.7204 33.4413L33.9636 34.1156C34.4702 34.2679 34.8606 34.6627 35.0269 35.1522H31.4066C31.076 35.1413 30.8893 35.5779 31.1238 35.8124C31.7691 36.5021 31.7691 37.1172 31.1238 37.8072C31.0175 37.9208 30.9883 38.0876 31.0498 38.231C31.0987 38.3451 31.1981 38.4249 31.3145 38.4537C30.9523 38.9255 30.9204 39.6268 31.2504 40.1248C31.2503 40.1248 28.3351 40.1248 28.3351 40.1248L28.3575 34.2656ZM32.8901 40.2158C31.4473 40.1837 31.4435 38.5005 32.8901 38.4674C32.8901 38.4674 38.1277 38.4674 38.1277 38.4674H38.8543C38.7728 38.6271 38.7163 38.7881 38.6799 38.9497H35.5089C35.0008 38.9517 35.0003 39.7312 35.5089 39.7331C35.5089 39.7331 38.6798 39.7331 38.6798 39.7331C38.7162 39.8949 38.7728 40.0561 38.8542 40.2158H32.8901Z"/>
</mask>
<path d="M39.968 37.9204C39.9191 37.8063 39.8197 37.7265 39.7032 37.6977C40.5225 36.5855 39.531 35.1215 38.1277 35.1522C38.1277 35.1522 35.8371 35.1522 35.8371 35.1522C35.6506 34.3111 35.0219 33.6162 34.186 33.3651L31.7665 32.6379L31.0749 31.5922C30.9591 31.4156 30.7234 31.3655 30.5449 31.4774V30.6703C31.2631 30.0633 31.7667 29.21 31.9333 28.2411C32.8868 28.3106 33.7208 27.5595 33.7168 26.5714C33.7168 26.188 33.5813 25.8392 33.363 25.5586V23.8189C33.0735 17.3956 22.8224 17.3918 22.529 23.8189C22.529 23.8189 22.529 25.5631 22.529 25.5631C21.6422 26.677 22.5386 28.361 23.9598 28.241C24.1267 29.2121 24.6319 30.0671 25.3525 30.6744L25.3411 31.4706C25.1638 31.3662 24.9364 31.4201 24.8229 31.5922L24.1311 32.6379L21.7122 33.3648C20.704 33.6677 20 34.6198 20 35.6797V40.5165C20 40.733 20.174 40.9082 20.3887 40.9082C25.0144 40.8523 35.0978 41.0119 39.6112 40.9993C39.9397 41.0084 40.13 40.5748 39.8939 40.3386C39.2487 39.649 39.2486 39.0339 39.894 38.3446C40.0002 38.2306 40.0295 38.0642 39.968 37.9204ZM39.2225 36.8096C39.2225 37.292 38.7313 37.684 38.1277 37.684H32.1635C32.2449 37.5243 32.3014 37.3631 32.3377 37.2013H35.5089C36.0169 37.1994 36.0175 36.4199 35.5089 36.4179H32.3376C32.3013 36.2563 32.2448 36.0952 32.1635 35.9356H38.1277C38.7313 35.9356 39.2225 36.3277 39.2225 36.8096ZM30.6307 32.3331L31.0714 32.9991L30.1752 34.7739L28.6481 33.4895L30.6307 32.3331ZM32.0777 27.4577H31.9969V25.7028C33.1778 25.6384 33.2742 27.4153 32.0777 27.4577ZM27.9479 19.7571C30.5051 19.7571 32.5856 21.5793 32.5856 23.8189V25.0088C32.402 24.9456 32.1986 24.9122 31.9969 24.9194C31.9969 24.9194 31.9969 23.3369 31.9969 23.3369C31.9969 23.1292 31.8359 22.9575 31.6298 22.946C30.6269 22.889 29.9194 22.7364 29.4673 22.479C29.33 22.4006 29.1594 22.4132 29.0353 22.5123C27.8806 23.4291 26.3641 23.5768 24.4001 22.9629C24.2818 22.9258 24.1535 22.9476 24.0543 23.0218C23.9548 23.0956 23.8962 23.2126 23.8962 23.3369V24.9194C23.6944 24.9121 23.4903 24.9457 23.3065 25.0092V23.8189C23.3065 21.5793 25.3885 19.7571 27.9479 19.7571ZM22.9534 26.5714C22.951 26.0593 23.3941 25.6642 23.8962 25.7028C23.8962 25.7028 23.8962 27.4577 23.8962 27.4577C23.3922 27.4957 22.9515 27.1019 22.9534 26.5714ZM24.6736 27.5438C24.681 26.6622 24.6682 24.7198 24.6736 23.8549C26.5387 24.3353 28.0966 24.1421 29.3152 23.2784C29.792 23.4961 30.4094 23.6334 31.2195 23.7022V27.5438C31.0553 31.912 24.8378 31.9126 24.6736 27.5438ZM26.1299 31.1865C27.2102 31.7659 28.688 31.7649 29.7675 31.1842V31.9309L27.9489 32.9919L26.1299 31.9308V31.1865ZM25.2674 32.3328L27.2499 33.4895L25.7233 34.7739L24.8263 32.9991L25.2674 32.3328ZM20.7774 35.6797C20.7774 34.9633 21.2532 34.3203 21.9342 34.1152L24.1773 33.4412L25.2519 35.5672C25.3565 35.7873 25.6647 35.8512 25.8475 35.69C25.8475 35.69 27.5803 34.232 27.5803 34.232L27.5577 40.1248H20.7774L20.7774 35.6797ZM28.3575 34.2656L30.0515 35.69C30.2338 35.8513 30.5424 35.7869 30.647 35.5668C30.647 35.5669 31.7204 33.4413 31.7204 33.4413L33.9636 34.1156C34.4702 34.2679 34.8606 34.6627 35.0269 35.1522H31.4066C31.076 35.1413 30.8893 35.5779 31.1238 35.8124C31.7691 36.5021 31.7691 37.1172 31.1238 37.8072C31.0175 37.9208 30.9883 38.0876 31.0498 38.231C31.0987 38.3451 31.1981 38.4249 31.3145 38.4537C30.9523 38.9255 30.9204 39.6268 31.2504 40.1248C31.2503 40.1248 28.3351 40.1248 28.3351 40.1248L28.3575 34.2656ZM32.8901 40.2158C31.4473 40.1837 31.4435 38.5005 32.8901 38.4674C32.8901 38.4674 38.1277 38.4674 38.1277 38.4674H38.8543C38.7728 38.6271 38.7163 38.7881 38.6799 38.9497H35.5089C35.0008 38.9517 35.0003 39.7312 35.5089 39.7331C35.5089 39.7331 38.6798 39.7331 38.6798 39.7331C38.7162 39.8949 38.7728 40.0561 38.8542 40.2158H32.8901Z" fill="black" stroke="#2563EB" stroke-width="3" mask="url(#path-2-inside-1_3657_1490)"/>
</svg>
