<svg width="60" height="60" viewBox="0 0 60 60" fill="none" xmlns="http://www.w3.org/2000/svg">
<rect width="60" height="60" rx="5" fill="#E9EFFD"/>
<path d="M38.8347 22.919H37.8432V19.1484C37.8432 19.1091 37.8258 19.0713 37.7948 19.0435C37.7638 19.0156 37.7218 19 37.6779 19H23.3467C22.7246 19.0008 22.1282 19.2231 21.6883 19.6183C21.2484 20.0134 21.0009 20.5491 21 21.108V38.3547C21 39.8124 22.4576 41 24.2457 41H38.8347C38.8786 41 38.9206 40.9844 38.9516 40.9565C38.9826 40.9287 39 40.8909 39 40.8516V23.0675C39 23.0281 38.9826 22.9903 38.9516 22.9625C38.9206 22.9347 38.8786 22.919 38.8347 22.919ZM23.3467 19.2969H37.5127V22.919H35.6188V21.0931C35.6188 21.0537 35.6014 21.016 35.5704 20.9881C35.5394 20.9603 35.4974 20.9447 35.4535 20.9447H24.292C24.2481 20.9447 24.2061 20.9603 24.1751 20.9881C24.1441 21.016 24.1267 21.0537 24.1267 21.0931C24.1267 21.1325 24.1441 21.1702 24.1751 21.1981C24.2061 21.2259 24.2481 21.2416 24.292 21.2416H35.2883V22.9042H23.3467C22.812 22.9042 22.2991 22.7134 21.921 22.3737C21.5429 22.0341 21.3305 21.5734 21.3305 21.0931C21.3305 20.6128 21.5429 20.1521 21.921 19.8125C22.2991 19.4729 22.812 19.2821 23.3467 19.2821V19.2969ZM38.6662 40.7031H24.2457C22.6394 40.7031 21.3305 39.6491 21.3305 38.3547V22.1798C21.5376 22.4948 21.8324 22.756 22.1859 22.9376C22.5394 23.1193 22.9394 23.2152 23.3467 23.2159H38.6695L38.6662 40.7031ZM32.6706 30.7601C33.0248 30.8708 33.4076 30.8847 33.7706 30.8001C34.1336 30.7155 34.4606 30.5362 34.7102 30.2847C34.9598 30.0333 35.1208 29.721 35.173 29.3874C35.2251 29.0538 35.166 28.7138 35.003 28.4103C34.8401 28.1069 34.5808 27.8536 34.2577 27.6825C33.9346 27.5114 33.5623 27.4302 33.1879 27.4491C32.8134 27.4679 32.4536 27.5861 32.1539 27.7886C31.8541 27.9911 31.6279 28.2689 31.5039 28.5868C31.3586 28.9652 31.368 29.3778 31.5303 29.7506L27.7888 31.3746C27.6168 31.0138 27.3114 30.7174 26.9241 30.5355C26.5369 30.3536 26.0917 30.2973 25.6636 30.3762C25.2356 30.4551 24.851 30.6643 24.5748 30.9684C24.2986 31.2726 24.1477 31.6531 24.1477 32.0456C24.1477 32.4381 24.2986 32.8186 24.5748 33.1228C24.851 33.427 25.2356 33.6361 25.6636 33.715C26.0917 33.7939 26.5369 33.7376 26.9241 33.5557C27.3114 33.3738 27.6168 33.0774 27.7888 32.7166L31.5204 34.3377C31.3677 34.7004 31.3573 35.099 31.4909 35.4678C31.6245 35.8366 31.8941 36.1534 32.2552 36.3659C32.6163 36.5784 33.0473 36.674 33.477 36.6367C33.9067 36.5995 34.3095 36.4318 34.6187 36.1612C34.928 35.8906 35.1252 35.5333 35.1779 35.1484C35.2306 34.7635 35.1356 34.374 34.9085 34.0441C34.6814 33.7143 34.336 33.4639 33.9291 33.3343C33.5222 33.2046 33.0783 33.2036 32.6706 33.3312C32.2528 33.4655 31.9015 33.7285 31.679 34.0734L27.8913 32.4316C27.9592 32.1779 27.9592 31.9133 27.8913 31.6596L31.6724 30.0178C31.8965 30.3638 32.2503 30.6269 32.6706 30.7601ZM32.7797 33.6132C33.1218 33.506 33.4948 33.5087 33.835 33.6207C34.1752 33.7328 34.4616 33.9473 34.6455 34.2278C34.8294 34.5083 34.8994 34.8374 34.8435 35.159C34.7877 35.4806 34.6094 35.7749 34.3391 35.9917C34.0688 36.2085 33.7232 36.3344 33.3612 36.3481C32.9991 36.3617 32.643 36.2621 32.3535 36.0664C32.064 35.8706 31.8589 35.5908 31.7733 35.2745C31.6877 34.9582 31.7268 34.625 31.884 34.3317C31.9731 34.1645 32.0981 34.0147 32.2518 33.8909C32.4055 33.7671 32.5849 33.6717 32.7797 33.6103V33.6132ZM26.0338 33.4529C25.7241 33.4529 25.4213 33.3704 25.1637 33.2159C24.9062 33.0614 24.7054 32.8418 24.5867 32.5848C24.468 32.3279 24.4368 32.0451 24.497 31.7722C24.5572 31.4992 24.7061 31.2485 24.9248 31.0516C25.1436 30.8546 25.4224 30.7204 25.7261 30.6657C26.0298 30.6111 26.3447 30.6385 26.631 30.7446C26.9174 30.8507 27.1623 31.0306 27.3348 31.2616C27.5073 31.4926 27.5998 31.7644 27.6004 32.0426C27.6004 32.4162 27.4355 32.7744 27.1418 33.0388C26.8481 33.3032 26.4496 33.4521 26.0338 33.4529ZM31.8145 28.6847C31.9339 28.3766 32.1686 28.1152 32.4785 27.9451C32.7884 27.7749 33.1544 27.7066 33.5141 27.7516C33.8739 27.7967 34.2051 27.9524 34.4513 28.1923C34.6975 28.4321 34.8436 28.7412 34.8646 29.0669C34.8856 29.3926 34.7802 29.7148 34.5663 29.9786C34.3525 30.2423 34.0435 30.4313 33.692 30.5133C33.3405 30.5954 32.9681 30.5654 32.6384 30.4285C32.3088 30.2915 32.0421 30.0562 31.884 29.7625C31.7935 29.5959 31.7407 29.4149 31.7288 29.2299C31.7169 29.0449 31.746 28.8596 31.8145 28.6847Z" fill="#2563EB" stroke="#2563EB"/>
</svg>
